<svg width="16" height="18" fill="none" xmlns="http://www.w3.org/2000/svg"><path fill-rule="evenodd" clip-rule="evenodd" d="M8.001 5.458a1.667 1.667 0 100 3.333 1.667 1.667 0 000-3.333zM4.668 7.124a3.333 3.333 0 116.667 0 3.333 3.333 0 01-6.667 0z" fill="#17696A"/><path fill-rule="evenodd" clip-rule="evenodd" d="M8.001 1.708c-3.016 0-5.416 2.363-5.416 5.224 0 2.332 1.401 4.688 2.934 6.54A23.268 23.268 0 008 16.033a23.267 23.267 0 002.483-2.56c1.532-1.852 2.934-4.208 2.934-6.54 0-2.86-2.4-5.224-5.417-5.224zm0 15.416l-.516.655-.002-.002-.005-.004-.016-.013a13.248 13.248 0 01-.268-.222 24.936 24.936 0 01-2.96-3.003C2.641 12.609.918 9.868.918 6.932c0-3.83 3.196-6.891 7.083-6.891 3.888 0 7.084 3.06 7.084 6.891 0 2.936-1.724 5.677-3.317 7.603a24.93 24.93 0 01-2.96 3.003 14.947 14.947 0 01-.268.222l-.016.013-.005.004-.001.001s-.001.001-.517-.654zm0 0l.516.655a.834.834 0 01-1.032 0l.516-.655z" fill="#17696A"/></svg>