<?xml version="1.0" encoding="utf-8"?><svg viewBox="0 0 21 24" xmlns="http://www.w3.org/2000/svg" xmlns:xlink="http://www.w3.org/1999/xlink"><style>:root>svg{display:none}:root>svg:target{display:block}</style><svg viewBox="0 0 21 8" id="icon-arrow" xmlns="http://www.w3.org/2000/svg"><path d="M.314 4.354a.5.5 0 010-.708L3.496.464a.5.5 0 11.708.708L1.374 4l2.829 2.828a.5.5 0 11-.708.708L.314 4.354zm20.354.146h-20v-1h20v1z"/></svg><svg viewBox="0 0 16 9" id="icon-chevron" xmlns="http://www.w3.org/2000/svg"><path fill-rule="evenodd" clip-rule="evenodd" d="M.293 8.707a1 1 0 010-1.414l7-7a1 1 0 011.414 0l7 7a1 1 0 01-1.414 1.414L8 2.414 1.707 8.707a1 1 0 01-1.414 0z"/></svg><svg viewBox="0 0 20 20" id="icon-clock" xmlns="http://www.w3.org/2000/svg"><path d="M10.832 5.417a.833.833 0 10-1.667 0v4.584c0 .22.088.433.244.589l2.5 2.5a.834.834 0 001.179-1.179l-2.256-2.256V5.417z"/><path fill-rule="evenodd" clip-rule="evenodd" d="M9.999.834a9.167 9.167 0 100 18.333 9.167 9.167 0 000-18.333zm-7.5 9.167a7.5 7.5 0 1115 0 7.5 7.5 0 01-15 0z"/></svg><svg viewBox="0 0 16 18" id="icon-marker" xmlns="http://www.w3.org/2000/svg"><path fill-rule="evenodd" clip-rule="evenodd" d="M8.001 5.458a1.667 1.667 0 100 3.333 1.667 1.667 0 000-3.333zM4.668 7.124a3.333 3.333 0 116.667 0 3.333 3.333 0 01-6.667 0z"/><path fill-rule="evenodd" clip-rule="evenodd" d="M8.001 1.708c-3.016 0-5.416 2.363-5.416 5.224 0 2.332 1.401 4.688 2.934 6.54A23.268 23.268 0 008 16.033a23.267 23.267 0 002.483-2.56c1.532-1.852 2.934-4.208 2.934-6.54 0-2.86-2.4-5.224-5.417-5.224zm0 15.416l-.516.655-.002-.002-.005-.004-.016-.013a13.248 13.248 0 01-.268-.222 24.936 24.936 0 01-2.96-3.003C2.641 12.609.918 9.868.918 6.932c0-3.83 3.196-6.891 7.083-6.891 3.888 0 7.084 3.06 7.084 6.891 0 2.936-1.724 5.677-3.317 7.603a24.93 24.93 0 01-2.96 3.003 14.947 14.947 0 01-.268.222l-.016.013-.005.004-.001.001s-.001.001-.517-.654zm0 0l.516.655a.834.834 0 01-1.032 0l.516-.655z"/></svg><svg viewBox="0 0 18 15" id="icon-message" xmlns="http://www.w3.org/2000/svg"><path fill-rule="evenodd" clip-rule="evenodd" d="M17.96 12V2.835a2.5 2.5 0 00-2.5-2.5H2.543a2.5 2.5 0 00-2.5 2.5v9.167a2.5 2.5 0 002.5 2.5H15.46a2.5 2.5 0 002.5-2.5zm-1.667-7.283V12c0 .46-.373.833-.833.833H2.543a.833.833 0 01-.833-.833V4.717l5.886 4.002a2.5 2.5 0 002.811 0l5.886-4.002zm-.01-2.01a.834.834 0 00-.823-.706H2.543a.834.834 0 00-.824.707L8.533 7.34a.833.833 0 00.937 0l6.813-4.633z"/></svg><svg viewBox="0 0 14 24" id="icon-tel" xmlns="http://www.w3.org/2000/svg"><path fill-rule="evenodd" clip-rule="evenodd" d="M3.5 2.922a1.5 1.5 0 00-1.5 1.5v15.156a1.5 1.5 0 001.5 1.5h7a1.5 1.5 0 001.5-1.5V4.422a1.5 1.5 0 00-1.5-1.5h-.083l-.244.584a1 1 0 01-.923.616h-4.5a1 1 0 01-.923-.616l-.244-.584H3.5zM0 4.422a3.5 3.5 0 013.5-3.5h7a3.5 3.5 0 013.5 3.5v15.156a3.5 3.5 0 01-3.5 3.5h-7a3.5 3.5 0 01-3.5-3.5V4.422z"/></svg></svg>